<svg width="33.596004" height="33.596008" viewBox="0 0 33.596 33.596" fill="none" xmlns="http://www.w3.org/2000/svg"
     xmlns:xlink="http://www.w3.org/1999/xlink">
    <g id="bookSvg">
        <desc>
            Created with Pixso.
        </desc>
        <defs>
            <filter id="filter_13_3282_dd" x="0.199463" y="2.799561" width="33.197002" height="35.996674"
                    filterUnits="userSpaceOnUse" color-interpolation-filters="sRGB">
                <feFlood flood-opacity="0" result="BackgroundImageFix"/>
                <feColorMatrix in="SourceAlpha" type="matrix" values="0 0 0 0 0 0 0 0 0 0 0 0 0 0 0 0 0 0 127 0"
                               result="hardAlpha"/>
                <feOffset dx="0" dy="4"/>
                <feGaussianBlur stdDeviation="1.33333"/>
                <feComposite in2="hardAlpha" operator="out" k2="-1" k3="1"/>
                <feColorMatrix type="matrix" values="0 0 0 0 0 0 0 0 0 0 0 0 0 0 0 0 0 0 0.25 0"/>
                <feBlend mode="normal" in2="BackgroundImageFix" result="effect_dropShadow_1"/>
                <feBlend mode="normal" in="SourceGraphic" in2="effect_dropShadow_1" result="shape"/>
            </filter>
            <clipPath id="clip13_3280">
                <rect id="Frame" width="33.596004" height="33.596004" fill="white" fill-opacity="0"/>
            </clipPath>
        </defs>
        <rect id="Frame" width="33.596004" height="33.596004" fill="#FFFFFF" fill-opacity="0"/>
        <g clip-path="url(#clip13_3280)">
            <g filter="url(#filter_13_3282_dd)">
                <path id="Vector"
                      d="M4.19946 25.8968L4.19946 6.99905C4.19946 5.88528 4.64191 4.81712 5.42947 4.02957C6.21703 3.242 7.28519 2.79956 8.39896 2.79956L27.9966 2.79956C28.3679 2.79956 28.7239 2.94704 28.9865 3.20956C29.249 3.47208 29.3965 3.82814 29.3965 4.19939L29.3965 29.3964C29.3965 29.7677 29.249 30.1237 28.9865 30.3862C28.7239 30.6487 28.3679 30.7962 27.9966 30.7962L9.09888 30.7962C7.79947 30.7962 6.55329 30.28 5.63447 29.3612C4.71565 28.4424 4.19946 27.1962 4.19946 25.8968ZM26.5968 27.9966L26.5968 23.7971L9.09888 23.7971C8.54199 23.7971 8.00791 24.0183 7.61413 24.4121C7.22035 24.8058 6.99913 25.3399 6.99913 25.8968C6.99913 26.4537 7.22035 26.9878 7.61413 27.3816C8.00791 27.7753 8.54199 27.9966 9.09888 27.9966L26.5968 27.9966ZM6.99913 21.4691C7.65522 21.1576 8.37258 20.9964 9.09888 20.9974L26.5968 20.9974L26.5968 5.59923L8.39896 5.59923C8.02771 5.59923 7.67165 5.7467 7.40913 6.00923C7.14661 6.27174 6.99913 6.62781 6.99913 6.99905L6.99913 21.4691Z"
                      fill="#FFFFFF" fill-opacity="1.000000" fill-rule="nonzero"/>
            </g>
        </g>
    </g>
    <g id="burgerSvg">
        <desc>
            Created with Pixso.
        </desc>
        <defs/>
        <path id="Vector 9" d="M1 1L17.3257 1M3.72095 6.78198L17.3257 6.78198" stroke="#FFFFFF"
              stroke-opacity="1.000000" stroke-width="2.000000"/>
    </g>
    <g id="logo">
        <desc>
            Created with Pixso.
        </desc>
        <defs/>
        <path id="Nakul Kumar"
              d="M24.032 26.88C23.4986 26.88 23.136 26.624 22.944 26.112C22.7733 25.6 22.688 25.088 22.688 24.576C22.688 22.7413 23.6693 20.1066 25.632 16.672C26.8906 14.5173 28.832 11.616 31.456 7.96796C28.6186 8.22396 24.9493 10.464 20.448 14.688C16.864 18.08 14.3146 20.992 12.8 23.424C12.288 24.2133 12.032 24.7786 12.032 25.12C12.032 25.2693 12.0746 25.3653 12.16 25.408C12.2666 25.4506 12.32 25.472 12.32 25.472C12.32 25.5146 12.1173 25.6746 11.712 25.952C11.4133 26.1226 11.04 26.208 10.592 26.208C9.69597 26.208 9.31197 26.0053 9.43997 25.6C9.73864 24.6613 10.7306 22.9333 12.416 20.416C14.6133 17.152 16.0426 14.9226 16.704 13.728C18.1546 11.1253 18.88 9.06662 18.88 7.55196C18.88 6.48529 18.6133 5.74929 18.08 5.34396C17.568 4.93863 16.8426 4.73596 15.904 4.73596C13.3653 4.73596 10.6666 5.89862 7.80797 8.22396C6.63464 9.18396 5.54664 10.2506 4.54397 11.424C3.54131 12.576 2.73064 13.7706 2.11197 15.008C1.49331 16.2453 1.18397 17.4613 1.18397 18.656C1.18397 20.704 2.13331 21.7493 4.03197 21.792C6.67731 21.856 8.67197 20.9706 10.016 19.136C10.528 18.432 10.784 17.7706 10.784 17.152C10.784 16.7893 10.6666 16.544 10.432 16.416C10.4106 16.3946 10.4 16.3626 10.4 16.32C10.4 16.2346 10.464 16.192 10.592 16.192C11.1466 16.192 11.424 16.5546 11.424 17.28C11.424 17.728 11.2426 18.2933 10.88 18.976C10.2826 20 9.39731 20.8106 8.22397 21.408C7.05064 22.0053 5.83464 22.304 4.57597 22.304C3.18931 22.304 2.07997 21.888 1.24797 21.056C0.415974 20.224 -2.58759e-05 19.104 -2.58759e-05 17.696C-2.58759e-05 14.368 2.28264 10.8693 6.84797 7.19996C7.61597 6.58129 8.55464 6.02662 9.66397 5.53596C10.7733 5.04529 11.9146 4.66129 13.088 4.38396C14.2826 4.10662 15.3813 3.96796 16.384 3.96796C17.6426 3.96796 18.6346 4.21329 19.36 4.70396C20.1066 5.17329 20.48 5.99462 20.48 7.16796C20.48 8.68262 19.8613 10.688 18.624 13.184C18.3466 13.7386 17.9946 14.3786 17.568 15.104C17.1413 15.8293 16.64 16.6293 16.064 17.504C16.7253 16.672 17.8026 15.616 19.296 14.336C21.984 12.0746 24.4693 10.2186 26.752 8.76796C29.0346 7.29596 31.1146 6.21862 32.992 5.53596C33.184 5.45062 33.3973 5.40796 33.632 5.40796C34.4426 5.40796 34.9546 5.86662 35.168 6.78396C35.2746 7.14662 34.7626 7.90396 33.632 9.05596C30.9653 11.7866 28.6613 14.8373 26.72 18.208C24.9493 21.3226 24.064 23.584 24.064 24.992C24.064 25.5893 24.2666 25.888 24.672 25.888C24.928 25.888 25.568 25.664 26.592 25.216C27.488 24.8106 28.0746 24.576 28.352 24.512C28.4586 24.5546 28.512 24.608 28.512 24.672C28.512 24.992 27.9466 25.44 26.816 26.016C25.7066 26.592 24.7786 26.88 24.032 26.88ZM31.6737 23.968C31.1617 23.968 30.6497 23.7866 30.1377 23.424C29.6257 23.0613 29.3377 22.6346 29.2737 22.144C29.0604 20.5013 30.0951 18.5493 32.3777 16.288C34.6391 14.0266 36.6764 12.896 38.4897 12.896C38.9804 12.896 39.3644 13.0133 39.6417 13.248C39.7911 13.3973 39.8977 13.6 39.9617 13.856C40.0471 14.112 40.1111 14.24 40.1537 14.24C40.2391 14.24 40.3137 14.2293 40.3777 14.208C40.4417 14.1653 40.5164 14.144 40.6017 14.144C40.8577 14.144 41.0817 14.24 41.2737 14.432C41.4657 14.624 41.5724 14.7946 41.5937 14.944C41.6151 14.9866 40.9324 16.0426 39.5457 18.112C38.1591 20.1386 37.5297 21.5146 37.6577 22.24C37.7644 22.7306 37.9991 22.976 38.3617 22.976C39.4711 22.976 41.4977 21.1413 44.4417 17.472C44.5057 17.3866 44.5697 17.344 44.6337 17.344C44.7404 17.344 44.7937 17.4186 44.7937 17.568C44.7937 17.7386 44.6977 17.952 44.5057 18.208C41.7964 21.856 39.7164 23.68 38.2657 23.68C38.0737 23.68 37.8924 23.648 37.7217 23.584C36.7831 23.2213 36.3137 22.5173 36.3137 21.472C36.3137 21.1093 36.3564 20.7466 36.4417 20.384L34.4577 22.304C33.8604 22.9013 33.3164 23.328 32.8257 23.584C32.3564 23.84 31.9724 23.968 31.6737 23.968ZM31.3857 23.264C32.6231 23.264 34.3084 21.9093 36.4417 19.2L39.8337 14.528C39.6631 14.2293 39.3857 14.08 39.0017 14.08C37.7004 14.08 35.9404 15.1253 33.7217 17.216C31.4177 19.3493 30.3831 21.1093 30.6177 22.496C30.7244 23.008 30.9804 23.264 31.3857 23.264ZM49.2772 24.192C48.5732 24.192 47.9439 23.9893 47.3892 23.584C46.8559 23.1786 46.3866 22.6666 45.9812 22.048C45.5972 21.4293 45.2666 20.8106 44.9892 20.192C44.8399 20.384 44.6799 20.6293 44.5092 20.928C44.3599 21.2266 44.1786 21.5786 43.9652 21.984L42.9732 23.968C42.2052 23.6693 41.8212 23.264 41.8212 22.752C41.8212 21.8346 43.2186 19.2853 46.0132 15.104C48.7226 11.0506 50.5892 8.66129 51.6132 7.93596C51.7199 7.87196 51.8906 7.83996 52.1252 7.83996C52.7866 7.83996 53.1172 8.01062 53.1172 8.35196C53.1172 8.41596 52.9679 8.65062 52.6692 9.05596C52.3706 9.43996 51.9972 9.90929 51.5492 10.464C51.1012 11.0186 50.6426 11.584 50.1732 12.16C49.7252 12.7146 49.3306 13.2053 48.9892 13.632C48.6479 14.0373 48.4559 14.2933 48.4132 14.4C50.3546 13.3973 51.9012 12.896 53.0532 12.896C53.5012 12.896 53.9066 13.024 54.2692 13.28C54.6532 13.536 54.9519 13.8453 55.1652 14.208C55.3786 14.5706 55.4639 14.9226 55.4212 15.264C55.2506 16.48 54.3972 17.4826 52.8612 18.272C51.6239 18.9333 50.4932 19.264 49.4692 19.264C48.3599 19.264 47.5919 19.1253 47.1652 18.848C47.0372 18.8266 46.9306 18.8586 46.8452 18.944C46.7812 19.008 46.7706 19.1146 46.8132 19.264C47.4106 21.9093 48.4026 23.232 49.7892 23.232C50.4719 23.232 51.3786 22.8373 52.5092 22.048C53.6612 21.2586 54.8772 20.1066 56.1572 18.592C56.3066 18.4426 56.4452 18.368 56.5732 18.368C56.6799 18.368 56.7332 18.432 56.7332 18.56C56.7332 18.6666 56.6586 18.8266 56.5092 19.04C55.8906 19.7866 55.1652 20.5653 54.3332 21.376C53.5226 22.1653 52.6799 22.8373 51.8052 23.392C50.9306 23.9253 50.0879 24.192 49.2772 24.192ZM47.4212 18.432C48.3812 18.432 49.6399 18.0373 51.1972 17.248C52.9892 16.352 53.8852 15.4026 53.8852 14.4C53.8852 14.2293 53.7892 14.0586 53.5972 13.888C53.4052 13.7173 53.2026 13.632 52.9892 13.632C51.8372 13.632 50.4932 14.08 48.9572 14.976C47.2719 16 46.2479 17.12 45.8852 18.336C46.1199 18.336 46.4186 18.3573 46.7812 18.4C47.1652 18.4213 47.3786 18.432 47.4212 18.432ZM56.815 24.16C55.855 24.16 55.375 23.552 55.375 22.336C55.375 21.8666 55.5136 21.312 55.791 20.672C56.0896 20.0106 56.5056 19.3173 57.039 18.592C57.039 18.592 56.847 18.7733 56.463 19.136C56.079 19.4986 55.6416 19.9573 55.151 20.512C55.0656 20.5973 54.959 20.64 54.831 20.64C54.7456 20.64 54.703 20.5866 54.703 20.48C54.703 20.3733 54.799 20.192 54.991 19.936L59.407 14.752C59.9616 14.112 60.5696 13.792 61.231 13.792C61.7216 13.792 61.967 13.984 61.967 14.368C61.967 14.5173 61.903 14.656 61.775 14.784C61.3696 15.168 60.8683 15.712 60.271 16.416C59.695 17.12 59.1296 17.8773 58.575 18.688C58.0203 19.4986 57.551 20.2773 57.167 21.024C56.8043 21.7493 56.623 22.336 56.623 22.784C56.623 23.168 56.751 23.36 57.007 23.36C57.1563 23.36 57.391 23.3066 57.711 23.2C58.031 23.072 58.4576 22.8266 58.991 22.464C59.5243 22.08 60.1643 21.4933 60.911 20.704C61.039 20.576 61.3803 20.192 61.935 19.552C62.4896 18.912 63.2363 17.9946 64.175 16.8C65.839 14.7306 66.927 13.696 67.439 13.696C68.143 13.696 68.527 13.984 68.591 14.56C68.6336 14.752 68.1856 15.3813 67.247 16.448C66.031 17.92 65.199 18.976 64.751 19.616C63.919 20.832 63.503 21.7813 63.503 22.464C63.503 22.9333 63.663 23.168 63.983 23.168C64.303 23.168 64.7083 23.0186 65.199 22.72C65.711 22.4 66.2443 22.0053 66.799 21.536C67.3536 21.0453 67.887 20.544 68.399 20.032C68.9323 19.4986 69.391 19.008 69.775 18.56C69.903 18.4106 70.031 18.336 70.159 18.336C70.287 18.336 70.351 18.4 70.351 18.528C70.351 18.5706 70.3403 18.6346 70.319 18.72C70.2976 18.8053 70.2336 18.9013 70.127 19.008C69.7856 19.392 69.3483 19.872 68.815 20.448C68.2816 21.0026 67.7056 21.5573 67.087 22.112C66.4683 22.6666 65.871 23.1253 65.295 23.488C64.719 23.8506 64.2283 24.032 63.823 24.032C63.3323 24.032 62.9056 23.904 62.543 23.648C62.1803 23.3706 61.999 22.9973 61.999 22.528C61.999 22.0586 62.0736 21.5893 62.223 21.12C62.3723 20.6293 62.4896 20.2133 62.575 19.872C61.5723 21.0453 60.687 21.9413 59.919 22.56C59.1723 23.1786 58.543 23.5946 58.031 23.808C57.519 24.0426 57.1136 24.16 56.815 24.16ZM71.3367 23.872C70.7181 23.872 70.1421 23.7226 69.6087 23.424C69.0754 23.104 68.8087 22.5813 68.8087 21.856C68.8087 20.8533 69.1607 19.6586 69.8647 18.272C70.5901 16.8853 71.4114 15.4453 72.3287 13.952C74.8247 9.89862 76.5954 7.87196 77.6407 7.87196C77.8541 7.87196 78.0674 7.95729 78.2807 8.12796C78.5154 8.27729 78.6434 8.44796 78.6647 8.63996L76.4247 11.648C75.5501 12.8213 74.7607 13.9093 74.0567 14.912C73.3527 15.8933 72.7447 16.7786 72.2327 17.568C71.9767 17.9733 71.6887 18.432 71.3687 18.944C71.0487 19.456 70.7607 19.9893 70.5047 20.544C70.2701 21.0773 70.1527 21.6213 70.1527 22.176C70.1527 22.432 70.2274 22.6666 70.3767 22.88C70.5261 23.072 70.7927 23.168 71.1767 23.168C71.8594 23.168 72.7554 22.8053 73.8647 22.08C74.9741 21.3333 76.0727 20.3093 77.1607 19.008C77.2674 18.88 77.3847 18.7626 77.5127 18.656C77.6407 18.5493 77.7474 18.496 77.8327 18.496C77.9394 18.496 77.9927 18.56 77.9927 18.688C77.9927 18.752 77.9181 18.88 77.7687 19.072C77.6407 19.2426 77.5341 19.3813 77.4487 19.488L76.6807 20.352C76.2541 20.8213 75.7421 21.3333 75.1447 21.888C74.5687 22.4426 73.9501 22.912 73.2887 23.296C72.6487 23.68 71.9981 23.872 71.3367 23.872ZM116.086 27.936C115.254 27.936 114.518 27.7866 113.878 27.488C112.96 27.04 112.054 26.4106 111.158 25.6C110.262 24.8106 109.408 23.9146 108.598 22.912C107.787 21.9093 107.062 20.8533 106.422 19.744C105.782 18.6346 105.248 17.5573 104.822 16.512C103.648 17.1946 102.678 17.568 101.91 17.632C101.312 18.4 100.555 19.2746 99.6377 20.256C98.7204 21.2373 97.6964 22.1866 96.5657 23.104C95.4564 24.0213 94.2617 24.768 92.9817 25.344C91.7231 25.9413 90.4431 26.24 89.1417 26.24C87.4777 26.24 86.1551 25.8133 85.1737 24.96C84.2137 24.128 83.7337 22.8053 83.7337 20.992C83.7337 19.9893 83.9791 18.9973 84.4697 18.016C84.9604 17.0346 85.6217 16.1493 86.4537 15.36C87.2857 14.5706 88.1924 13.9733 89.1737 13.568C90.3897 13.0346 91.6591 12.768 92.9817 12.768C93.7284 12.768 94.3257 12.9706 94.7737 13.376C95.2217 13.76 95.4457 14.2613 95.4457 14.88C95.4457 15.1573 95.4031 15.3386 95.3177 15.424C95.2964 15.4453 95.2644 15.456 95.2217 15.456C95.1577 15.456 95.0724 15.3706 94.9657 15.2C94.6244 14.5386 94.2831 14.1013 93.9417 13.888C93.6004 13.6746 93.1204 13.568 92.5017 13.568C91.5631 13.568 90.6457 13.8026 89.7497 14.272C88.8751 14.72 88.0751 15.328 87.3497 16.096C86.6457 16.864 86.0804 17.728 85.6537 18.688C85.2271 19.6266 85.0137 20.576 85.0137 21.536C85.0137 23.84 86.3151 25.1413 88.9177 25.44C89.8991 25.5253 91.1897 25.1093 92.7897 24.192C95.1791 22.8266 97.7284 20.48 100.438 17.152C99.9471 16.704 99.7017 16.064 99.7017 15.232C99.7017 14.3146 100.011 13.4826 100.63 12.736C101.312 11.9253 102.219 11.52 103.35 11.52C103.67 11.52 103.968 11.552 104.246 11.616C104.822 10.6346 105.376 9.64262 105.91 8.63996C106.443 7.63729 106.955 6.62396 107.446 5.59996C108.384 3.65862 108.854 2.52796 108.854 2.20796C108.854 2.16529 108.843 2.14396 108.822 2.14396C108.758 2.10129 108.502 2.18662 108.054 2.39996C107.606 2.59196 107.083 2.83729 106.486 3.13596C105.888 3.41329 105.334 3.69062 104.822 3.96796C104.31 4.24529 103.958 4.44796 103.766 4.57596C103.04 5.04529 102.315 5.64262 101.59 6.36796C100.651 7.30662 100.182 8.03196 100.182 8.54396C100.182 8.77862 100.288 8.97062 100.502 9.11996C100.95 9.43996 101.611 9.59996 102.486 9.59996C102.592 9.64262 102.646 9.68529 102.646 9.72796C102.646 9.83462 102.304 9.94129 101.622 10.048C100.939 10.1546 100.406 10.1866 100.022 10.144C99.4884 10.016 99.2217 9.70662 99.2217 9.21596C99.2217 8.46929 99.6804 7.57329 100.598 6.52796C101.515 5.48262 102.518 4.66129 103.606 4.06396C106.784 2.35729 108.8 1.50396 109.654 1.50396C109.867 1.50396 110.048 1.54663 110.198 1.63196C110.283 1.69596 110.326 1.81329 110.326 1.98396C110.326 3.28529 108.534 7.00796 104.95 13.152C105.014 13.408 105.099 13.7066 105.206 14.048C105.334 14.368 105.483 14.7413 105.654 15.168L115.19 7.90396C116.79 6.68796 118.251 5.58929 119.574 4.60796C120.896 3.62663 122.155 2.79462 123.35 2.11196C124.566 1.42929 125.782 0.906624 126.998 0.543957C128.235 0.181292 129.568 -4.19617e-05 130.998 -4.19617e-05C131.787 -4.19617e-05 132.512 0.127958 133.174 0.383957C133.579 0.533291 133.782 0.831957 133.782 1.27996C133.782 1.64262 133.675 1.82396 133.462 1.82396C133.355 1.82396 133.248 1.75996 133.142 1.63196C132.95 1.41862 132.544 1.31196 131.926 1.31196C131.584 1.31196 131.136 1.35462 130.582 1.43996C130.027 1.52529 129.355 1.65329 128.566 1.82396C127.35 2.10129 126.059 2.53862 124.694 3.13596C123.35 3.73329 121.931 4.49062 120.438 5.40796C118.56 6.58129 116 8.40529 112.758 10.88C111.115 12.1386 109.718 13.184 108.566 14.016C107.435 14.8266 106.56 15.4346 105.942 15.84C106.411 16.8213 106.976 17.8346 107.638 18.88C108.32 19.9253 109.056 20.9386 109.846 21.92C110.635 22.88 111.467 23.7333 112.342 24.48C113.216 25.248 114.08 25.824 114.934 26.208C115.766 26.592 116.523 26.784 117.206 26.784C118.23 26.784 118.742 26.3893 118.742 25.6C118.742 25.5573 118.742 25.504 118.742 25.44C118.742 25.376 118.731 25.3226 118.71 25.28C118.71 25.2373 118.699 25.1946 118.678 25.152C118.678 25.1306 118.678 25.1093 118.678 25.088C118.678 24.8746 118.731 24.6826 118.838 24.512C118.944 24.3626 119.062 24.288 119.19 24.288C119.467 24.288 119.648 24.6186 119.734 25.28C119.755 25.3226 119.766 25.376 119.766 25.44C119.766 25.504 119.766 25.5573 119.766 25.6C119.766 26.112 119.584 26.5386 119.222 26.88C118.859 27.2426 118.4 27.5093 117.846 27.68C117.291 27.8506 116.704 27.936 116.086 27.936ZM101.462 15.84L101.686 15.52C101.856 15.264 102.08 14.9333 102.358 14.528C102.656 14.1226 102.987 13.6426 103.35 13.088C103.094 12.9813 102.87 12.928 102.678 12.928C102.23 12.928 101.856 13.12 101.558 13.504C101.259 13.888 101.11 14.3146 101.11 14.784C101.11 15.1893 101.227 15.5413 101.462 15.84ZM102.87 16.384C103.083 16.384 103.222 16.3733 103.286 16.352C103.563 16.3093 103.99 16.1386 104.566 15.84C104.48 15.584 104.395 15.3493 104.31 15.136C104.246 14.9226 104.192 14.7306 104.15 14.56C104 14.7946 103.819 15.072 103.606 15.392C103.392 15.6906 103.147 16.0213 102.87 16.384ZM114.471 24.16C113.511 24.16 113.031 23.552 113.031 22.336C113.031 21.8666 113.17 21.312 113.447 20.672C113.746 20.0106 114.162 19.3173 114.695 18.592C114.695 18.592 114.503 18.7733 114.119 19.136C113.735 19.4986 113.298 19.9573 112.807 20.512C112.722 20.5973 112.615 20.64 112.487 20.64C112.402 20.64 112.359 20.5866 112.359 20.48C112.359 20.3733 112.455 20.192 112.647 19.936L117.063 14.752C117.618 14.112 118.226 13.792 118.887 13.792C119.378 13.792 119.623 13.984 119.623 14.368C119.623 14.5173 119.559 14.656 119.431 14.784C119.026 15.168 118.525 15.712 117.927 16.416C117.351 17.12 116.786 17.8773 116.231 18.688C115.677 19.4986 115.207 20.2773 114.823 21.024C114.461 21.7493 114.279 22.336 114.279 22.784C114.279 23.168 114.407 23.36 114.663 23.36C114.813 23.36 115.047 23.3066 115.367 23.2C115.687 23.072 116.114 22.8266 116.647 22.464C117.181 22.08 117.821 21.4933 118.567 20.704C118.695 20.576 119.037 20.192 119.591 19.552C120.146 18.912 120.893 17.9946 121.831 16.8C123.495 14.7306 124.583 13.696 125.095 13.696C125.799 13.696 126.183 13.984 126.247 14.56C126.29 14.752 125.842 15.3813 124.903 16.448C123.687 17.92 122.855 18.976 122.407 19.616C121.575 20.832 121.159 21.7813 121.159 22.464C121.159 22.9333 121.319 23.168 121.639 23.168C121.959 23.168 122.365 23.0186 122.855 22.72C123.367 22.4 123.901 22.0053 124.455 21.536C125.01 21.0453 125.543 20.544 126.055 20.032C126.589 19.4986 127.047 19.008 127.431 18.56C127.559 18.4106 127.687 18.336 127.815 18.336C127.943 18.336 128.007 18.4 128.007 18.528C128.007 18.5706 127.997 18.6346 127.975 18.72C127.954 18.8053 127.89 18.9013 127.783 19.008C127.442 19.392 127.005 19.872 126.471 20.448C125.938 21.0026 125.362 21.5573 124.743 22.112C124.125 22.6666 123.527 23.1253 122.951 23.488C122.375 23.8506 121.885 24.032 121.479 24.032C120.989 24.032 120.562 23.904 120.199 23.648C119.837 23.3706 119.655 22.9973 119.655 22.528C119.655 22.0586 119.73 21.5893 119.879 21.12C120.029 20.6293 120.146 20.2133 120.231 19.872C119.229 21.0453 118.343 21.9413 117.575 22.56C116.829 23.1786 116.199 23.5946 115.687 23.808C115.175 24.0426 114.77 24.16 114.471 24.16ZM134.113 23.872C133.601 23.872 133.345 23.584 133.345 23.008C133.58 21.8133 134.06 20.4693 134.785 18.976C135.126 18.2506 135.468 17.536 135.809 16.832C136.172 16.128 136.524 15.4133 136.865 14.688C136.076 15.2213 135.286 15.8186 134.497 16.48C133.708 17.12 132.94 17.8453 132.193 18.656C131.318 19.5946 130.305 20.8 129.153 22.272C128.321 23.3173 127.841 23.84 127.713 23.84C127.414 23.84 127.169 23.7013 126.977 23.424C126.785 23.1466 126.689 22.912 126.689 22.72C126.689 22.4426 126.934 21.728 127.425 20.576C127.574 20.2133 127.724 19.8613 127.873 19.52C128.044 19.1573 128.204 18.8053 128.353 18.464L126.433 20.48C126.39 20.5226 126.262 20.6506 126.049 20.864C125.836 21.0773 125.665 21.184 125.537 21.184C125.43 21.184 125.377 21.1093 125.377 20.96C125.377 20.9173 125.398 20.864 125.441 20.8C125.462 20.7146 125.526 20.6186 125.633 20.512C125.953 20.192 126.284 19.8506 126.625 19.488C126.966 19.1253 127.318 18.7093 127.681 18.24C127.958 17.8773 128.353 17.344 128.865 16.64C129.398 15.9146 130.049 15.008 130.817 13.92C131.052 13.6 131.382 13.44 131.809 13.44C132.236 13.44 132.449 13.6426 132.449 14.048C132.449 14.1973 131.905 15.1893 130.817 17.024C130.262 18.0053 129.814 18.8053 129.473 19.424C129.153 20.0426 128.95 20.5013 128.865 20.8C129.334 20.288 129.889 19.712 130.529 19.072C131.19 18.432 131.948 17.7173 132.801 16.928C135.425 14.496 137.153 13.28 137.985 13.28C138.22 13.28 138.444 13.3546 138.657 13.504C138.892 13.6533 139.009 13.8453 139.009 14.08C139.009 14.1866 138.593 14.9653 137.761 16.416C136.95 17.888 136.502 18.7626 136.417 19.04C138.785 17.056 139.969 16.0533 139.969 16.032C141.974 14.4746 143.414 13.696 144.289 13.696C144.545 13.696 144.78 13.7813 144.993 13.952C145.228 14.1013 145.345 14.2826 145.345 14.496C145.345 14.5386 144.662 15.4346 143.297 17.184C141.889 18.9546 141.1 20.4053 140.929 21.536C140.844 22.304 141.238 22.688 142.113 22.688C142.646 22.688 143.393 22.3466 144.353 21.664C145.313 20.9813 146.316 20.0426 147.361 18.848C147.489 18.6986 147.628 18.56 147.777 18.432C147.926 18.2826 148.054 18.208 148.161 18.208C148.289 18.208 148.353 18.2613 148.353 18.368C148.353 18.5173 148.257 18.688 148.065 18.88C147.51 19.5413 146.849 20.224 146.081 20.928C145.334 21.632 144.588 22.2293 143.841 22.72C143.094 23.1893 142.433 23.424 141.857 23.424C140.406 23.424 139.681 22.752 139.681 21.408C139.681 20.9386 139.809 20.3946 140.065 19.776C140.321 19.136 140.577 18.56 140.833 18.048C141.452 16.8533 142.124 15.7973 142.849 14.88C142.166 15.2213 141.452 15.6693 140.705 16.224C139.98 16.7786 139.222 17.4293 138.433 18.176C136.598 19.968 135.34 21.7813 134.657 23.616C134.55 23.7866 134.369 23.872 134.113 23.872ZM148.892 23.968C148.38 23.968 147.868 23.7866 147.356 23.424C146.844 23.0613 146.556 22.6346 146.492 22.144C146.279 20.5013 147.314 18.5493 149.596 16.288C151.858 14.0266 153.895 12.896 155.708 12.896C156.199 12.896 156.583 13.0133 156.86 13.248C157.01 13.3973 157.116 13.6 157.18 13.856C157.266 14.112 157.33 14.24 157.372 14.24C157.458 14.24 157.532 14.2293 157.596 14.208C157.66 14.1653 157.735 14.144 157.82 14.144C158.076 14.144 158.3 14.24 158.492 14.432C158.684 14.624 158.791 14.7946 158.812 14.944C158.834 14.9866 158.151 16.0426 156.764 18.112C155.378 20.1386 154.748 21.5146 154.876 22.24C154.983 22.7306 155.218 22.976 155.58 22.976C156.69 22.976 158.716 21.1413 161.66 17.472C161.724 17.3866 161.788 17.344 161.852 17.344C161.959 17.344 162.012 17.4186 162.012 17.568C162.012 17.7386 161.916 17.952 161.724 18.208C159.015 21.856 156.935 23.68 155.484 23.68C155.292 23.68 155.111 23.648 154.94 23.584C154.002 23.2213 153.532 22.5173 153.532 21.472C153.532 21.1093 153.575 20.7466 153.66 20.384L151.676 22.304C151.079 22.9013 150.535 23.328 150.044 23.584C149.575 23.84 149.191 23.968 148.892 23.968ZM148.604 23.264C149.842 23.264 151.527 21.9093 153.66 19.2L157.052 14.528C156.882 14.2293 156.604 14.08 156.22 14.08C154.919 14.08 153.159 15.1253 150.94 17.216C148.636 19.3493 147.602 21.1093 147.836 22.496C147.943 23.008 148.199 23.264 148.604 23.264ZM166.464 23.968C165.547 23.968 164.917 23.7333 164.576 23.264C164.235 22.7733 164.064 22.1226 164.064 21.312C164.064 20.416 164.341 19.3493 164.896 18.112C165.109 17.6213 165.333 17.184 165.568 16.8C165.803 16.3946 166.048 16.0213 166.304 15.68C166.219 15.7013 166.144 15.712 166.08 15.712C166.016 15.712 165.952 15.712 165.888 15.712C165.376 15.712 164.949 15.3493 164.608 14.624L162.24 17.696C160.981 19.3386 160.213 20.16 159.936 20.16C159.829 20.16 159.776 20.1173 159.776 20.032C159.776 19.9253 159.829 19.7866 159.936 19.616C160 19.488 160.128 19.3173 160.32 19.104C161.131 18.1653 161.877 17.2373 162.56 16.32C163.243 15.4026 163.808 14.5066 164.256 13.632C164.747 11.776 165.365 10.848 166.112 10.848C166.603 10.848 166.848 11.072 166.848 11.52C166.848 11.9253 166.581 12.4586 166.048 13.12C165.536 13.7813 165.28 14.1226 165.28 14.144C165.28 14.592 165.611 14.816 166.272 14.816C166.656 14.816 167.083 14.6773 167.552 14.4L168.384 13.888C168.427 13.8666 168.491 13.856 168.576 13.856C168.832 13.856 169.056 13.9626 169.248 14.176C169.44 14.3893 169.504 14.5813 169.44 14.752L167.232 17.536C165.867 19.2853 165.184 20.6933 165.184 21.76C165.184 22.72 165.653 23.2 166.592 23.2C167.232 23.2 167.915 23.008 168.64 22.624C169.387 22.24 170.101 21.7706 170.784 21.216C171.488 20.64 172.075 20.0853 172.544 19.552L173.312 18.656C173.355 18.6133 173.408 18.56 173.472 18.496C173.536 18.432 173.589 18.4 173.632 18.4C173.781 18.4 173.856 18.4746 173.856 18.624C173.856 18.6666 173.835 18.7413 173.792 18.848C173.749 18.9546 173.675 19.072 173.568 19.2L172.544 20.352C172.053 20.9066 171.445 21.472 170.72 22.048C170.016 22.6026 169.28 23.0613 168.512 23.424C167.765 23.7866 167.083 23.968 166.464 23.968Z"
              fill="#FFFFFF" fill-opacity="1.000000" fill-rule="evenodd"/>
    </g>
</svg>
