<svg width="488" height="488" viewBox="0 0 488 488" fill="none" xmlns="http://www.w3.org/2000/svg">
<g filter="url(#filter0_d_1513_3)">
<path d="M243.783 0C111.463 0 4 107.43 4 239.75C4 372.07 111.463 479.53 243.783 479.53C376.103 479.53 483.563 372.071 483.563 239.751C483.563 107.431 376.103 0 243.783 0ZM243.783 17.875C346.556 17.875 432.875 87.539 458.157 182.281L378.844 100.811L371.877 93.656L365.189 101.126L287.969 187.564C276.6 177.406 265.11 167.384 253.502 157.501L246.939 151.876L240.814 158.032C222.12 176.853 203.639 195.886 185.376 215.126L108.939 131.751L102.064 124.251L95.189 131.751L24.001 209.064C38.927 100.965 131.546 17.875 243.783 17.875ZM346.033 165.155L342.188 200.531L363.751 168.531L374.501 185.219L384.469 176.749L411.657 203.563L404.563 168.969L424.063 174.031L463.251 214.281L464.094 213.469C465.129 222.191 465.651 230.966 465.658 239.749C465.658 276.782 456.598 311.666 440.595 342.344C394.345 288.864 348.083 242.228 301.845 200.061L312.845 187.749L346.035 165.155H346.033ZM125.873 187.905L152.311 206.687L172.531 228.719C133.061 270.743 93.901 314.555 56.591 359.063C34.611 324.62 21.873 283.683 21.873 239.75V238.97L38.123 221.312L75.373 201.125L58.186 255.188L99.999 203.968L127.311 236.688L125.873 187.906V187.905ZM267.248 249.562L320.405 310.5L312.717 255.937L373.875 296.625C393.331 317.057 412.254 337.991 430.625 359.405L430.813 359.219C391.416 420.841 322.431 461.655 243.783 461.655C172.023 461.655 108.3 427.663 67.75 374.905C86.885 351.995 106.525 329.26 126.47 306.845L182.625 273.031L153.313 349.781L214.843 276.406L221.093 308.596L240.625 271.813L288.469 341.313L267.249 249.563L267.248 249.562Z" fill="black"/>
</g>
<defs>
<filter id="filter0_d_1513_3" x="0" y="0" width="487.563" height="487.53" filterUnits="userSpaceOnUse" color-interpolation-filters="sRGB">
<feFlood flood-opacity="0" result="BackgroundImageFix"/>
<feColorMatrix in="SourceAlpha" type="matrix" values="0 0 0 0 0 0 0 0 0 0 0 0 0 0 0 0 0 0 127 0" result="hardAlpha"/>
<feOffset dy="4"/>
<feGaussianBlur stdDeviation="2"/>
<feComposite in2="hardAlpha" operator="out"/>
<feColorMatrix type="matrix" values="0 0 0 0 0 0 0 0 0 0 0 0 0 0 0 0 0 0 0.25 0"/>
<feBlend mode="normal" in2="BackgroundImageFix" result="effect1_dropShadow_1513_3"/>
<feBlend mode="normal" in="SourceGraphic" in2="effect1_dropShadow_1513_3" result="shape"/>
</filter>
</defs>
</svg>
